# xmcd CD database file
# Copyright (C) 1997 Ti Kan
#
# Track frame offsets:
#  150
#  13938
#  25425
#  39338
#  50863
#  62563
#  70950
#  83638
#  93363
#  108850
#  121375
#  134175
#
# Disc length: 1964 seconds
#
# Revision: 1
# Processed by: cddbd v1.4b41PL1 Copyright (c) Steve Scherf et al.
# Submitted via: CDWizzard Release:4.35
#
DISCID=a807aa0c
DTITLE=Skeeter Davis and NRBQ - She Sings, They Play
DYEAR=1900
DGENRE=
TTITLE0=Things To You`
TTITLE1=Everybody Wants A Cowboy
TTITLE2=I Can't Stop Loving You Now
TTITLE3=Heart to Heart
TTITLE4=Ain't Nice To talk Like That
TTITLE5=Everybody's Clown
TTITLE6=Someday My Prince Will Come
TTITLE7=How Many More Tears
TTITLE8=You Don't Know What You Got Until You Lose It
TTITLE9=Roses On My Shoulder
TTITLE10=Temporarily Out Of Order
TTITLE11=May You Never Be Alone
EXTD=
EXTT0=
EXTT1=
EXTT2=
EXTT3=
EXTT4=
EXTT5=
EXTT6=
EXTT7=
EXTT8=
EXTT9=
EXTT10=
EXTT11=
PLAYORDER=
